<svg width="23.000000" height="23.000000" viewBox="0 0 23 23" fill="none" xmlns="http://www.w3.org/2000/svg" xmlns:xlink="http://www.w3.org/1999/xlink">
	<desc>
			Created with Pixso.
	</desc>
	<defs/>
	<path id="Vector" d="M4.98315 11.0168C5.4209 11.4543 5.66675 12.0478 5.66675 12.6667L5.66675 15L17.3333 15L17.3333 12.6667C17.3333 12.0478 17.5791 11.4543 18.0168 11.0168C18.4543 10.5792 19.0479 10.3333 19.6667 10.3333C20.2854 10.3333 20.8789 10.5792 21.3167 11.0168C21.7542 11.4543 22 12.0478 22 12.6667L22 17.3333C22 17.9522 21.7542 18.5457 21.3167 18.9832C20.8789 19.4208 20.2854 19.6667 19.6667 19.6667L3.33325 19.6667C2.7146 19.6667 2.12109 19.4208 1.68335 18.9832C1.24585 18.5457 1 17.9522 1 17.3333L1 12.6667C1 12.0478 1.24585 11.4543 1.68335 11.0168C2.12109 10.5792 2.7146 10.3333 3.33325 10.3333C3.95215 10.3333 4.54565 10.5792 4.98315 11.0168ZM3.33325 10.3333L3.33325 4.5C3.33325 3.57174 3.70215 2.6815 4.3584 2.02512C5.01489 1.36875 5.90503 1 6.83325 1L16.1667 1C17.095 1 17.9851 1.36875 18.6416 2.02512C19.2979 2.6815 19.6667 3.57174 19.6667 4.5L19.6667 10.3333M4.5 19.6667L4.5 22M18.5 19.6667L18.5 22" stroke="#1DD100" stroke-opacity="1.000000" stroke-width="2.000000" stroke-linejoin="round"/>
</svg>
