<svg width="28.000000" height="28.000000" viewBox="0 0 28 28" fill="none" xmlns="http://www.w3.org/2000/svg" xmlns:xlink="http://www.w3.org/1999/xlink">
	<desc>
			Created with Pixso.
	</desc>
	<defs>
		<clipPath id="clip6_125">
			<rect id="tabler-icon-armchair" width="28.000000" height="28.000000" fill="white" fill-opacity="0"/>
		</clipPath>
	</defs>
	<rect id="tabler-icon-armchair" width="28.000000" height="28.000000" fill="#FFFFFF" fill-opacity="0"/>
	<g clip-path="url(#clip6_125)">
		<path id="Vector" d="M5.83325 7L5.83325 12.8333C5.2146 12.8333 4.62109 13.0792 4.18335 13.5168C3.74585 13.9543 3.5 14.5478 3.5 15.1667L3.5 19.8333C3.5 20.4522 3.74585 21.0457 4.18335 21.4832C4.62109 21.9208 5.2146 22.1667 5.83325 22.1667L6 22.1667L6.02002 22.1867L7.97998 22.1867L8 22.1667L20 22.1667L20.02 22.1867L21.98 22.1867L22 22.1667L22.1667 22.1667C22.7854 22.1667 23.3789 21.9208 23.8167 21.4832C24.2542 21.0457 24.5 20.4522 24.5 19.8333L24.5 15.1667C24.5 14.5478 24.2542 13.9543 23.8167 13.5168C23.3789 13.0792 22.7854 12.8333 22.1667 12.8333L22.1667 7C22.1667 6.07175 21.7979 5.18152 21.1416 4.52512C20.4851 3.86874 19.595 3.5 18.6667 3.5L9.33325 3.5C8.40503 3.5 7.51489 3.86874 6.8584 4.52512C6.20215 5.18152 5.83325 6.07175 5.83325 7ZM22.1667 12.8333C21.5479 12.8333 20.9543 13.0792 20.5168 13.5168C20.0791 13.9543 19.8333 14.5478 19.8333 15.1667L19.8333 17.5L8.16675 17.5L8.16675 15.1667C8.16675 14.5478 7.9209 13.9543 7.48315 13.5168C7.04565 13.0792 6.45215 12.8333 5.83325 12.8333L22.1667 12.8333ZM8 24.5L7.97998 24.48L6.02002 24.48L6 24.5C6 25.06 6.43994 25.5 7 25.5C7.56006 25.5 8 25.06 8 24.5ZM22 24.5L21.98 24.48L20.02 24.48L20 24.5C20 25.06 20.4399 25.5 21 25.5C21.5601 25.5 22 25.06 22 24.5Z" fill="#1DD100" fill-opacity="1.000000" fill-rule="evenodd"/>
		<path id="Vector" d="M7.48315 13.5168C7.9209 13.9543 8.16675 14.5478 8.16675 15.1667L8.16675 17.5L19.8333 17.5L19.8333 15.1667C19.8333 14.5478 20.0791 13.9543 20.5168 13.5168C20.9543 13.0792 21.5479 12.8333 22.1667 12.8333C22.7854 12.8333 23.3789 13.0792 23.8167 13.5168C24.2542 13.9543 24.5 14.5478 24.5 15.1667L24.5 19.8333C24.5 20.4522 24.2542 21.0457 23.8167 21.4832C23.3789 21.9208 22.7854 22.1667 22.1667 22.1667L5.83325 22.1667C5.2146 22.1667 4.62109 21.9208 4.18335 21.4832C3.74585 21.0457 3.5 20.4522 3.5 19.8333L3.5 15.1667C3.5 14.5478 3.74585 13.9543 4.18335 13.5168C4.62109 13.0792 5.2146 12.8333 5.83325 12.8333C6.45215 12.8333 7.04565 13.0792 7.48315 13.5168ZM5.83325 12.8333L5.83325 7C5.83325 6.07175 6.20215 5.18152 6.8584 4.52512C7.51489 3.86874 8.40503 3.5 9.33325 3.5L18.6667 3.5C19.595 3.5 20.4851 3.86874 21.1416 4.52512C21.7979 5.18152 22.1667 6.07175 22.1667 7L22.1667 12.8333M7 22.1667L7 24.5M21 22.1667L21 24.5" stroke="#1DD100" stroke-opacity="1.000000" stroke-width="2.000000" stroke-linejoin="round"/>
	</g>
</svg>
