<svg width="40.000000" height="40.000294" viewBox="0 0 40 40.0003" fill="none" xmlns="http://www.w3.org/2000/svg" xmlns:xlink="http://www.w3.org/1999/xlink">
	<desc>
			Created with Pixso.
	</desc>
	<defs/>
	<path id="Vector" d="M30 2.67979C33.0404 4.43516 35.5652 6.95994 37.3206 10.0003C39.0759 13.0408 40 16.4897 40 20.0004C40 23.5112 39.0758 26.9601 37.3204 30.0005C35.5649 33.0408 33.0402 35.5656 29.9998 37.3209C26.9594 39.0763 23.5104 40.0004 19.9996 40.0003C16.4889 40.0002 13.04 39.076 9.99963 37.3206C6.95935 35.5652 4.43457 33.0403 2.67932 29.9999C0.92395 26.9595 -0.00012207 23.5105 0 19.9998L0.0100098 19.3518C0.121948 15.8978 1.12708 12.5317 2.92725 9.58177C4.72742 6.63183 7.26135 4.19869 10.2817 2.51955C13.3022 0.840412 16.7063 -0.02742 20.162 0.000659943C23.6177 0.0287437 27.0072 0.951782 30 2.67979ZM17.578 11.4478C17.1038 10.4989 16.272 9.77718 15.2657 9.4415C14.2594 9.10581 13.1609 9.18361 12.212 9.65779L11.106 10.2118C10.6486 10.4585 10.3051 10.8735 10.1483 11.3691C9.9917 11.8646 10.0339 12.4017 10.2665 12.8666C10.4989 13.3314 10.9031 13.6876 11.3936 13.8595C11.884 14.0315 12.4221 14.0057 12.894 13.7878L14 13.2358L13.998 15.9998L12 15.9998C11.5101 15.9999 11.0374 16.1797 10.6713 16.5052C10.3052 16.8307 10.0713 17.2793 10.014 17.7658L10 17.9998C10 18.5302 10.2107 19.0389 10.5858 19.414C10.9608 19.7891 11.4696 19.9998 12 19.9998L13.998 19.9998L14 25.9998C13.9999 27.5302 14.5846 29.0028 15.6345 30.1163C16.6844 31.2298 18.1202 31.9 19.6479 31.9898L20 31.9998L21 31.9998C22.8566 31.9998 24.637 31.2623 25.9497 29.9495C27.2625 28.6368 28 26.8563 28 24.9998L28 23.9998C28 23.4694 27.7893 22.9606 27.4142 22.5856C27.0392 22.2105 26.5304 21.9998 26 21.9998L24 21.9998C23.4696 21.9998 22.9608 22.2105 22.5858 22.5856C22.2107 22.9606 22 23.4694 22 23.9998L22.014 24.2338C22.0667 24.6802 22.2682 25.0959 22.5861 25.4138C22.9039 25.7316 23.3196 25.9331 23.766 25.9858L23.83 25.9898L23.79 26.1038C23.5686 26.6631 23.1842 27.143 22.6868 27.4811C22.1892 27.8192 21.6016 27.9999 21 27.9998L20 27.9998C19.4696 27.9998 18.9608 27.7891 18.5858 27.414C18.2107 27.0389 18 26.5302 18 25.9998L17.998 19.9998L26 19.9998C26.4899 19.9997 26.9626 19.8199 27.3287 19.4944C27.6948 19.1688 27.9287 18.7203 27.986 18.2338L28 17.9998C28 17.4694 27.7893 16.9606 27.4142 16.5856C27.0392 16.2105 26.5304 15.9998 26 15.9998L17.998 15.9998L18 13.2358C18 12.7398 17.9078 12.2481 17.728 11.7858L17.578 11.4478Z" fill="#1DD100" fill-opacity="1.000000" fill-rule="nonzero"/>
	<path id="Vector" d="M37.3206 10.0003C39.0759 13.0408 40 16.4897 40 20.0004C40 23.5112 39.0758 26.9601 37.3204 30.0005C35.5649 33.0408 33.0402 35.5656 29.9998 37.3209C26.9594 39.0763 23.5105 40.0004 19.9996 40.0003C16.4889 40.0002 13.04 39.076 9.99963 37.3206C6.95935 35.5652 4.43457 33.0403 2.67932 29.9999C0.92395 26.9595 -0.00012207 23.5105 0 19.9998L0.0100098 19.3518C0.121948 15.8978 1.12708 12.5317 2.92725 9.58177C4.72742 6.63183 7.26135 4.19869 10.2817 2.51955C13.3022 0.840412 16.7063 -0.02742 20.162 0.000659943C23.6177 0.0287437 27.0072 0.951782 30 2.67979C33.0404 4.43516 35.5652 6.95994 37.3206 10.0003ZM15.2657 9.4415C14.2594 9.10581 13.1609 9.18361 12.212 9.65779L11.106 10.2118C10.6486 10.4585 10.3051 10.8735 10.1483 11.3691C9.9917 11.8646 10.0339 12.4017 10.2665 12.8666C10.4989 13.3314 10.9031 13.6876 11.3936 13.8595C11.884 14.0315 12.4221 14.0057 12.894 13.7878L14 13.2358L13.998 15.9998L12 15.9998C11.5101 15.9999 11.0374 16.1797 10.6713 16.5052C10.3052 16.8307 10.0713 17.2793 10.014 17.7658L10 17.9998C10 18.5302 10.2107 19.0389 10.5858 19.414C10.9608 19.7891 11.4696 19.9998 12 19.9998L13.998 19.9998L14 25.9998C13.9999 27.5302 14.5846 29.0028 15.6345 30.1163C16.6844 31.2298 18.1202 31.9 19.6479 31.9898L20 31.9998L21 31.9998C22.8566 31.9998 24.637 31.2623 25.9497 29.9495C27.2625 28.6368 28 26.8563 28 24.9998L28 23.9998C28 23.4694 27.7893 22.9606 27.4142 22.5856C27.0392 22.2105 26.5304 21.9998 26 21.9998L24 21.9998C23.4696 21.9998 22.9608 22.2105 22.5858 22.5856C22.2107 22.9606 22 23.4694 22 23.9998L22.014 24.2338C22.0667 24.6802 22.2682 25.0959 22.5861 25.4138C22.9039 25.7316 23.3196 25.9331 23.766 25.9858L23.83 25.9898L23.79 26.1038C23.5686 26.6631 23.1842 27.143 22.6868 27.4811C22.1892 27.8192 21.6016 27.9999 21 27.9998L20 27.9998C19.4696 27.9998 18.9608 27.7891 18.5858 27.414C18.2107 27.0389 18 26.5302 18 25.9998L17.998 19.9998L26 19.9998C26.4899 19.9997 26.9626 19.8199 27.3287 19.4944C27.6948 19.1688 27.9287 18.7203 27.986 18.2338L28 17.9998C28 17.4694 27.7893 16.9606 27.4142 16.5856C27.0392 16.2105 26.5304 15.9998 26 15.9998L17.998 15.9998L18 13.2358C18 12.7398 17.9078 12.2481 17.728 11.7858L17.578 11.4478C17.1038 10.4989 16.272 9.77718 15.2657 9.4415Z" stroke="#1DD100" stroke-opacity="1.000000" stroke-width="0.000000" stroke-linejoin="round"/>
</svg>
